<svg xmlns="http://www.w3.org/2000/svg" xmlns:xlink="http://www.w3.org/1999/xlink" width="100" height="100" viewBox="0 0 100 100">
  <defs>
    <clipPath id="clip-path">
      <rect id="사각형_7" data-name="사각형 7" width="100" height="100" transform="translate(2399 -1293)" fill="#a2a2a2" stroke="#707070" stroke-width="1" opacity="0.2"/>
    </clipPath>
  </defs>
  <g id="마스크_그룹_7" data-name="마스크 그룹 7" transform="translate(-2399 1293)" clip-path="url(#clip-path)">
    <g id="surface1" transform="translate(2399 -1292.999)">
      <path id="패스_17" data-name="패스 17" d="M99.884,27.145l0-.078c-.051-.961-.085-1.978-.106-3.109-.1-5.516-5.243-10.079-11.719-10.388-13.5-.642-23.947-4.393-32.871-11.8L55.108,1.7a8.5,8.5,0,0,0-10.214,0l-.076.062c-8.924,7.411-19.369,11.162-32.871,11.8C5.473,13.878.324,18.442.229,23.959.209,25.082.174,26.1.123,27.067l-.005.181c-.263,11.73-.589,26.328,5.144,39.578A50.291,50.291,0,0,0,19.448,85.653C26.58,91.583,35.921,96.29,47.212,99.644a9.839,9.839,0,0,0,5.584,0c11.277-3.36,20.608-8.07,27.734-14A50.359,50.359,0,0,0,94.717,66.812C100.471,53.522,100.145,38.9,99.884,27.145ZM88.252,64.781C82.206,78.747,69.864,88.338,50.522,94.1a1.975,1.975,0,0,1-.219.05,1.81,1.81,0,0,1-.606,0,1.957,1.957,0,0,1-.217-.05C30.118,88.348,17.768,78.763,11.727,64.8,6.444,52.583,6.743,39.182,7.007,27.36l0-.066c.054-1.016.09-2.08.109-3.249.043-2.449,2.333-4.476,5.213-4.613a69.459,69.459,0,0,0,20.52-3.846A55.079,55.079,0,0,0,49.575,6.015a.719.719,0,0,1,.853,0,55.1,55.1,0,0,0,16.723,9.572,69.463,69.463,0,0,0,20.522,3.846c2.881.137,5.17,2.163,5.213,4.614.021,1.175.056,2.24.11,3.249C93.258,39.13,93.55,52.542,88.252,64.781Zm0,0" fill="#a2a2a2"/>
      <path id="패스_18" data-name="패스 18" d="M119.664,128.41c-16.138,0-29.266,11.185-29.266,24.934s13.128,24.934,29.266,24.934,29.266-11.185,29.266-24.934S135.8,128.41,119.664,128.41Zm0,44c-12.338,0-22.375-8.551-22.375-19.063s10.037-19.063,22.375-19.063,22.374,8.551,22.374,19.063S132,172.406,119.664,172.406Zm0,0" transform="translate(-69.664 -103.319)" fill="#a2a2a2"/>
      <path id="패스_19" data-name="패스 19" d="M176.837,212.852l-13.593,11.581-3.689-3.143a3.882,3.882,0,0,0-4.873,0,2.64,2.64,0,0,0,0,4.151l6.126,5.22a3.882,3.882,0,0,0,4.872,0L181.71,217a2.64,2.64,0,0,0,0-4.151A3.879,3.879,0,0,0,176.837,212.852Zm0,0" transform="translate(-118.426 -170.567)" fill="#a2a2a2"/>
    </g>
  </g>
</svg>
