<svg xmlns="http://www.w3.org/2000/svg" xmlns:xlink="http://www.w3.org/1999/xlink" width="100" height="100" viewBox="0 0 100 100">
  <defs>
    <clipPath id="clip-path">
      <rect id="사각형_4" data-name="사각형 4" width="100" height="100" transform="translate(2780 -1288)" fill="#1082c1" stroke="#707070" stroke-width="1" opacity="0.2"/>
    </clipPath>
  </defs>
  <g id="마스크_그룹_4" data-name="마스크 그룹 4" transform="translate(-2780 1288)" clip-path="url(#clip-path)">
    <g id="cloud-computing" transform="translate(2780.001 -1288)">
      <path id="패스_9" data-name="패스 9" d="M80.759,27.754C77.381,9.074,60.906-3.051,43.959.672,31.565,3.4,21.873,14.072,19.395,27.733,7.379,29.259-1.239,41.233.145,54.479c1.274,12.19,10.641,21.388,21.773,21.379H37.561a3.465,3.465,0,0,0,0-6.9H21.917c-8.64-.056-15.6-7.822-15.552-17.346s7.1-17.2,15.736-17.143a3.257,3.257,0,0,0,3.11-3.069C26.8,16.266,39.22,5.414,52.952,7.165,64.5,8.638,73.6,18.676,74.939,31.4a3.428,3.428,0,0,0,3.294,3.069c8.64,0,15.644,7.72,15.644,17.245s-7,17.244-15.644,17.244H62.59a3.465,3.465,0,0,0,0,6.9H78.234C90.329,75.775,100.073,64.9,100,51.567c-.069-12.142-8.307-22.338-19.24-23.813Zm0,0" transform="translate(0 0)" fill="#1082c1"/>
      <path id="패스_10" data-name="패스 10" d="M199.723,212.676a2.927,2.927,0,0,0,4.424.085,3.7,3.7,0,0,0,.077-4.876c-.025-.029-.051-.057-.077-.085l-13.269-14.63a2.928,2.928,0,0,0-4.425-.007l-.005.007L173.179,207.8a3.7,3.7,0,0,0-.077,4.876,2.929,2.929,0,0,0,4.424.085l.077-.085,7.931-8.746v43.407a3.143,3.143,0,1,0,6.257,0V203.929Zm0,0" transform="translate(-138.587 -150.785)" fill="#1082c1"/>
    </g>
  </g>
</svg>
