<svg xmlns="http://www.w3.org/2000/svg" xmlns:xlink="http://www.w3.org/1999/xlink" width="100" height="100" viewBox="0 0 100 100">
  <defs>
    <clipPath id="clip-path">
      <rect id="사각형_2" data-name="사각형 2" width="100" height="100" transform="translate(2167 -1290)" fill="#1082c1" stroke="#707070" stroke-width="1" opacity="0.2"/>
    </clipPath>
  </defs>
  <g id="마스크_그룹_2" data-name="마스크 그룹 2" transform="translate(-2167 1290)" clip-path="url(#clip-path)">
    <g id="server-storage" transform="translate(2169.274 -1290)">
      <path id="패스_2" data-name="패스 2" d="M47.524,25C42.661,25,0,24.65,0,12.5S42.661,0,47.524,0,95.049.35,95.049,12.5,52.388,25,47.524,25ZM6.289,12.5c2.9,2.367,16.812,6.25,41.235,6.25S85.861,14.867,88.76,12.5c-2.9-2.367-16.812-6.25-41.235-6.25S9.188,10.133,6.289,12.5Zm82.926.483h0Z" transform="translate(0 0)" fill="#1082c1"/>
      <path id="패스_3" data-name="패스 3" d="M47.524,23.875C42.661,23.875,0,23.525,0,11.375A3.052,3.052,0,0,1,2.97,8.25a3.03,3.03,0,0,1,2.95,2.767c1.83,2.3,15.889,6.608,41.6,6.608s39.774-4.3,41.6-6.608a2.966,2.966,0,0,1,5.921.358c0,12.15-42.661,12.5-47.524,12.5Zm41.584-12.5Zm-83.168,0Z" transform="translate(0 26.125)" fill="#1082c1"/>
      <path id="패스_4" data-name="패스 4" d="M47.524,29.875C42.661,29.875,0,29.525,0,17.375A3.052,3.052,0,0,1,2.97,14.25a3.03,3.03,0,0,1,2.95,2.767c1.83,2.3,15.889,6.608,41.6,6.608s39.774-4.3,41.6-6.608a2.966,2.966,0,0,1,5.921.358c0,12.15-42.661,12.5-47.524,12.5Zm41.584-12.5Zm-83.168,0Z" transform="translate(0 45.125)" fill="#1082c1"/>
      <path id="패스_5" data-name="패스 5" d="M47.524,92.875C42.661,92.875,0,92.525,0,80.375v-75A3.052,3.052,0,0,1,2.97,2.25a3.052,3.052,0,0,1,2.97,3.125V80.037c1.9,2.317,15.96,6.588,41.584,6.588S87.2,82.354,89.108,80.037V5.375a2.974,2.974,0,1,1,5.941,0v75C95.049,92.525,52.388,92.875,47.524,92.875Z" transform="translate(0 7.125)" fill="#1082c1"/>
      <circle id="타원_1" data-name="타원 1" cx="4" cy="4" r="4" transform="translate(15.726 55)" fill="#1082c1"/>
      <ellipse id="타원_2" data-name="타원 2" cx="4" cy="4.5" rx="4" ry="4.5" transform="translate(15.726 29)" fill="#1082c1"/>
      <circle id="타원_3" data-name="타원 3" cx="4" cy="4" r="4" transform="translate(15.726 79)" fill="#1082c1"/>
    </g>
  </g>
</svg>
