<svg xmlns="http://www.w3.org/2000/svg" xmlns:xlink="http://www.w3.org/1999/xlink" width="100" height="100" viewBox="0 0 100 100">
  <defs>
    <clipPath id="clip-path">
      <rect id="사각형_1" data-name="사각형 1" width="100" height="100" transform="translate(1817 -1292)" fill="#1082c1" stroke="#707070" stroke-width="1" opacity="0.2"/>
    </clipPath>
  </defs>
  <g id="마스크_그룹_1" data-name="마스크 그룹 1" transform="translate(-1817 1292)" clip-path="url(#clip-path)">
    <g id="home" transform="translate(1817 -1302.676)">
      <g id="그룹_1" data-name="그룹 1" transform="translate(0 12.676)">
        <path id="패스_1" data-name="패스 1" d="M98.321,55.771l-8.448-7.855V21.867a2.972,2.972,0,0,0-2.941-3H66.6a2.972,2.972,0,0,0-2.941,3v1.669l-10.2-9.487a5.029,5.029,0,0,0-6.908,0L1.679,55.771A5.273,5.273,0,0,0,.351,61.529a5.1,5.1,0,0,0,4.782,3.343H12.3v41.8a2.972,2.972,0,0,0,2.941,3H39.833a2.972,2.972,0,0,0,2.941-3V81.293H57.227v25.381a2.972,2.972,0,0,0,2.941,3H84.759a2.971,2.971,0,0,0,2.941-3v-41.8h7.167a5.1,5.1,0,0,0,4.782-3.343A5.274,5.274,0,0,0,98.321,55.771Zm-13.562,3.1a2.972,2.972,0,0,0-2.941,3v41.8H63.108V78.292a2.972,2.972,0,0,0-2.941-3H39.833a2.972,2.972,0,0,0-2.941,3v25.381H18.181v-41.8a2.972,2.972,0,0,0-2.941-3H7.079L50,18.958,64.617,32.55a2.9,2.9,0,0,0,3.169.527,3,3,0,0,0,1.753-2.745V24.868H83.991V49.241a3.029,3.029,0,0,0,.96,2.218l7.969,7.411H84.759Z" transform="translate(0 -12.676)" fill="#1082c1"/>
      </g>
    </g>
  </g>
</svg>
